<?xml version="1.0" encoding="utf-8"?>
<!-- Generator: Adobe Illustrator 15.1.0, SVG Export Plug-In . SVG Version: 6.00 Build 0)  -->
<!DOCTYPE svg PUBLIC "-//W3C//DTD SVG 1.1//EN" "http://www.w3.org/Graphics/SVG/1.1/DTD/svg11.dtd">
<svg version="1.1" id="レイヤー_1" xmlns="http://www.w3.org/2000/svg" xmlns:xlink="http://www.w3.org/1999/xlink" x="0px"
	 y="0px" width="79.994px" height="79.994px" viewBox="0 0 79.994 79.994" enable-background="new 0 0 79.994 79.994"
	 xml:space="preserve">
<g>
	<path fill="#E60012" d="M18.756,75.826c-0.62,0-1.24-0.191-1.767-0.575c-1.048-0.764-1.487-2.113-1.088-3.348l7.349-22.75
		L4.105,34.776C3.072,34,2.652,32.652,3.061,31.427c0.409-1.225,1.555-2.05,2.846-2.05h23.732l7.54-23.139
		c0.402-1.234,1.554-2.07,2.853-2.07c1.299,0,2.449,0.835,2.853,2.07l7.544,23.139h23.66c1.291,0,2.438,0.826,2.846,2.05
		c0.408,1.224-0.013,2.573-1.045,3.349L56.745,49.153l7.244,22.43c0.173,0.379,0.269,0.8,0.269,1.243c0,1.657-1.343,3-3,3
		c-0.006,0-0.014,0-0.021,0c-0.615,0-1.23-0.188-1.756-0.567L40.028,61.214l-19.52,14.047C19.985,75.638,19.37,75.826,18.756,75.826
		z M14.897,35.377l13.667,10.265c1.023,0.769,1.446,2.103,1.053,3.319l-5.198,16.095l13.86-9.975
		c1.049-0.755,2.461-0.752,3.508,0.002l13.78,9.949l-5.189-16.071c-0.395-1.218,0.029-2.552,1.053-3.319l13.668-10.265H48.25
		c-1.299,0-2.45-0.835-2.853-2.07l-5.367-16.458l-5.363,16.458c-0.402,1.235-1.554,2.07-2.853,2.07H14.897z"/>
</g>
</svg>
