<?xml version="1.0" encoding="utf-8"?>
<!-- Generator: Adobe Illustrator 15.1.0, SVG Export Plug-In . SVG Version: 6.00 Build 0)  -->
<!DOCTYPE svg PUBLIC "-//W3C//DTD SVG 1.1//EN" "http://www.w3.org/Graphics/SVG/1.1/DTD/svg11.dtd">
<svg version="1.1" id="レイヤー_1" xmlns="http://www.w3.org/2000/svg" xmlns:xlink="http://www.w3.org/1999/xlink" x="0px"
	 y="0px" width="80px" height="80px" viewBox="0 0 80 80" enable-background="new 0 0 80 80" xml:space="preserve">
<g>
	<path fill="#FFFFFF" d="M66.77,69.27c-0.641,0-1.279-0.244-1.769-0.732l-9.986-9.986c-0.978-0.978-0.978-2.56,0-3.535
		c0.977-0.977,2.559-0.978,3.534,0l9.987,9.986c0.978,0.977,0.978,2.559,0,3.535C68.049,69.025,67.409,69.27,66.77,69.27z"/>
	<path fill="#FFFFFF" d="M38.743,66.754c-15.446,0-28.012-12.565-28.012-28.012c0-15.445,12.566-28.012,28.012-28.012
		c15.445,0,28.011,12.567,28.011,28.012C66.754,54.188,54.188,66.754,38.743,66.754z M38.743,15.73
		c-12.688,0-23.012,10.324-23.012,23.012c0,12.688,10.323,23.011,23.012,23.011s23.011-10.322,23.011-23.011
		C61.754,26.055,51.431,15.73,38.743,15.73z"/>
</g>
</svg>
