<?xml version="1.0" encoding="utf-8"?>
<!-- Generator: Adobe Illustrator 15.1.0, SVG Export Plug-In . SVG Version: 6.00 Build 0)  -->
<!DOCTYPE svg PUBLIC "-//W3C//DTD SVG 1.1//EN" "http://www.w3.org/Graphics/SVG/1.1/DTD/svg11.dtd">
<svg version="1.1" id="レイヤー_1" xmlns="http://www.w3.org/2000/svg" xmlns:xlink="http://www.w3.org/1999/xlink" x="0px"
	 y="0px" width="100px" height="55px" viewBox="0 0 100 55" enable-background="new 0 0 100 55" xml:space="preserve">
<g>
	<path fill="#1D2088" d="M22.393,23.023l-1.06-0.012c0,0,1.131-4.794,4.944-5.871c4.485-1.27,5.807,3.71,5.807,3.71
		s2.424-7.402,9.616-8.759c6.333-1.192,8.567,4.915,8.567,4.915S53.01,8.271,61.639,6.594c8.525-1.657,13.174,5.167,13.364,5.448
		l-2.448,1.645c-0.162-0.233-3.396-6.162-10.56-4.962c-7.272,1.219-10.666,9.363-10.697,9.445c-0.174,0.423-0.598,0.691-1.049,0.673
		c-0.457-0.021-0.851-0.325-0.984-0.762c-0.063-0.198-1.636-4.949-7.149-3.869c-5.774,1.131-9.021,7.531-9.053,7.596
		c-0.191,0.384-0.592,0.631-1.021,0.599c-0.43-0.021-0.805-0.294-0.957-0.695c-0.125-0.317-1.492-3.46-4.473-2.634
		C23.232,20.013,22.394,22.898,22.393,23.023z"/>
	<path fill="#1D2088" d="M16.449,24.932c-0.848-1.242-2.08-1.863-3.699-1.863c-0.504,0-1,0.067-1.485,0.202
		c-0.486,0.135-0.923,0.342-1.31,0.621c-0.387,0.279-0.697,0.639-0.932,1.08c-0.234,0.441-0.352,0.958-0.352,1.553
		c0,0.863,0.244,1.536,0.729,2.012c0.486,0.477,1.089,0.868,1.81,1.174c0.719,0.307,1.507,0.58,2.362,0.824
		c0.854,0.242,1.642,0.566,2.362,0.972c0.72,0.405,1.322,0.94,1.809,1.606c0.487,0.666,0.729,1.574,0.729,2.727
		c0,0.864-0.185,1.643-0.554,2.336s-0.855,1.273-1.458,1.741s-1.278,0.828-2.024,1.08c-0.748,0.252-1.499,0.378-2.255,0.378
		c-1.171,0-2.282-0.221-3.335-0.661c-1.053-0.44-1.948-1.165-2.686-2.174l1.781-1.269c0.412,0.701,0.986,1.265,1.723,1.688
		c0.737,0.423,1.605,0.635,2.61,0.635c0.484,0,0.97-0.076,1.454-0.229c0.484-0.152,0.919-0.378,1.305-0.675
		c0.386-0.297,0.704-0.662,0.955-1.094c0.252-0.433,0.377-0.928,0.377-1.484c0-0.666-0.139-1.221-0.418-1.661
		c-0.279-0.44-0.648-0.81-1.107-1.106c-0.459-0.296-0.98-0.544-1.566-0.742c-0.584-0.197-1.188-0.396-1.809-0.595
		c-0.621-0.196-1.225-0.422-1.809-0.675C9.07,31.08,8.549,30.761,8.09,30.374c-0.459-0.388-0.826-0.874-1.106-1.46
		c-0.279-0.584-0.418-1.319-0.418-2.2c0-0.918,0.176-1.719,0.527-2.403c0.35-0.684,0.818-1.251,1.403-1.701
		c0.585-0.45,1.246-0.783,1.984-0.999c0.737-0.216,1.494-0.324,2.269-0.324c1.08,0,2.061,0.171,2.942,0.513
		c0.881,0.342,1.701,0.945,2.457,1.809L16.449,24.932z"/>
	<path fill="#1D2088" d="M29.543,40.889c-0.035-0.342-0.059-0.679-0.066-1.012c-0.01-0.333-0.014-0.67-0.014-1.013h-0.055
		c-0.197,0.343-0.449,0.657-0.756,0.944c-0.307,0.289-0.648,0.535-1.025,0.742c-0.379,0.207-0.779,0.368-1.201,0.485
		c-0.424,0.116-0.842,0.176-1.256,0.176c-1.62,0-2.817-0.428-3.592-1.282c-0.773-0.854-1.16-2.074-1.16-3.658v-8.02h1.781v6.994
		c0,0.702,0.055,1.322,0.162,1.863c0.108,0.539,0.293,0.994,0.554,1.363c0.261,0.368,0.612,0.647,1.054,0.836
		c0.44,0.188,0.994,0.284,1.66,0.284c0.09,0,0.342-0.036,0.756-0.108c0.414-0.07,0.851-0.271,1.31-0.594
		c0.459-0.324,0.868-0.811,1.229-1.457c0.36-0.648,0.54-1.55,0.54-2.701v-6.48h1.781v9.855c0,0.343,0.014,0.774,0.041,1.297
		c0.027,0.521,0.059,1.018,0.094,1.484H29.543L29.543,40.889z"/>
	<path fill="#1D2088" d="M34.08,28.252h1.781v2.107h0.055c0.287-0.433,0.629-0.801,1.025-1.107s0.811-0.559,1.242-0.756
		c0.432-0.197,0.877-0.342,1.336-0.432c0.459-0.09,0.896-0.135,1.311-0.135c0.989,0,1.895,0.166,2.713,0.499
		c0.819,0.333,1.525,0.797,2.119,1.391c0.595,0.595,1.058,1.297,1.391,2.106c0.334,0.81,0.5,1.691,0.5,2.646
		c0,0.955-0.166,1.837-0.5,2.646c-0.333,0.811-0.796,1.512-1.391,2.106c-0.594,0.594-1.3,1.058-2.119,1.391
		c-0.818,0.333-1.724,0.499-2.713,0.499c-0.414,0-0.852-0.045-1.311-0.135s-0.904-0.234-1.336-0.432
		c-0.432-0.198-0.846-0.451-1.242-0.756c-0.396-0.308-0.738-0.677-1.025-1.107h-0.055v9.882H34.08V28.252z M45.609,34.57
		c0-0.701-0.113-1.357-0.338-1.971c-0.226-0.611-0.545-1.144-0.959-1.593c-0.414-0.45-0.914-0.807-1.498-1.067
		c-0.586-0.26-1.247-0.392-1.984-0.392c-0.738,0-1.414,0.132-2.025,0.392c-0.612,0.262-1.143,0.617-1.593,1.067
		c-0.45,0.449-0.802,0.979-1.054,1.593c-0.252,0.612-0.377,1.27-0.377,1.971c0,0.703,0.125,1.359,0.377,1.972
		c0.252,0.612,0.604,1.144,1.054,1.593c0.45,0.451,0.98,0.807,1.593,1.066c0.611,0.262,1.287,0.393,2.025,0.393
		c0.737,0,1.398-0.131,1.984-0.393c0.584-0.26,1.084-0.615,1.498-1.066c0.414-0.449,0.733-0.98,0.959-1.593
		C45.496,35.932,45.609,35.273,45.609,34.57z"/>
	<rect x="49.632" y="28.252" fill="#1D2088" width="1.782" height="12.637"/>
	<path fill="#1D2088" d="M64.05,24.932c-0.847-1.242-2.079-1.863-3.698-1.863c-0.504,0-1,0.067-1.485,0.202
		c-0.486,0.135-0.923,0.342-1.31,0.621c-0.388,0.279-0.697,0.639-0.932,1.08s-0.352,0.958-0.352,1.553
		c0,0.863,0.242,1.536,0.729,2.012s1.09,0.868,1.811,1.174c0.72,0.307,1.506,0.58,2.361,0.824c0.855,0.242,1.643,0.566,2.363,0.972
		c0.719,0.405,1.322,0.94,1.809,1.606c0.487,0.666,0.729,1.574,0.729,2.727c0,0.864-0.185,1.643-0.554,2.336
		s-0.854,1.273-1.459,1.741c-0.603,0.468-1.276,0.828-2.023,1.08s-1.499,0.378-2.255,0.378c-1.171,0-2.281-0.221-3.334-0.661
		c-1.054-0.44-1.949-1.165-2.687-2.174l1.781-1.269c0.412,0.701,0.986,1.265,1.723,1.688c0.735,0.423,1.605,0.635,2.609,0.635
		c0.484,0,0.971-0.076,1.454-0.229c0.483-0.152,0.919-0.378,1.306-0.675c0.385-0.297,0.703-0.662,0.955-1.094
		c0.251-0.433,0.377-0.928,0.377-1.484c0-0.666-0.14-1.221-0.418-1.661c-0.279-0.44-0.648-0.81-1.107-1.106
		c-0.459-0.296-0.98-0.544-1.565-0.742c-0.585-0.197-1.188-0.396-1.81-0.595c-0.62-0.196-1.225-0.422-1.809-0.675
		c-0.586-0.252-1.107-0.571-1.566-0.958c-0.459-0.388-0.827-0.873-1.106-1.459c-0.278-0.584-0.418-1.319-0.418-2.2
		c0-0.918,0.177-1.719,0.526-2.403c0.351-0.684,0.818-1.251,1.402-1.701c0.586-0.45,1.246-0.783,1.984-0.999
		c0.738-0.216,1.494-0.324,2.27-0.324c1.08,0,2.062,0.171,2.941,0.513c0.883,0.342,1.701,0.945,2.457,1.809L64.05,24.932z"/>
	<path fill="#1D2088" d="M68.02,20.477h1.781v9.802h0.055c0.197-0.342,0.449-0.657,0.756-0.945c0.306-0.288,0.647-0.535,1.025-0.742
		c0.379-0.208,0.778-0.369,1.201-0.486c0.424-0.116,0.842-0.175,1.256-0.175c1.62,0,2.816,0.427,3.592,1.282
		c0.773,0.854,1.16,2.076,1.16,3.659v8.02h-1.781v-6.992c0-1.404-0.244-2.479-0.729-3.228c-0.485-0.747-1.386-1.121-2.698-1.121
		c-0.091,0-0.343,0.037-0.757,0.108c-0.414,0.072-0.851,0.271-1.31,0.594c-0.459,0.324-0.868,0.811-1.229,1.458
		c-0.36,0.647-0.54,1.549-0.54,2.7v6.479H68.02V20.477L68.02,20.477z"/>
	<path fill="#1D2088" d="M94.451,34.57c0,0.955-0.166,1.837-0.499,2.646c-0.333,0.811-0.796,1.512-1.39,2.106
		c-0.596,0.594-1.301,1.058-2.121,1.391c-0.818,0.333-1.724,0.499-2.713,0.499c-0.973,0-1.867-0.166-2.687-0.499
		s-1.526-0.797-2.12-1.391c-0.595-0.595-1.059-1.296-1.391-2.106c-0.334-0.81-0.499-1.691-0.499-2.646
		c0-0.954,0.165-1.836,0.499-2.646c0.332-0.811,0.796-1.513,1.391-2.106c0.594-0.594,1.301-1.058,2.12-1.391
		c0.817-0.333,1.714-0.499,2.687-0.499c0.989,0,1.895,0.166,2.713,0.499c0.82,0.333,1.525,0.797,2.121,1.391
		c0.594,0.595,1.057,1.297,1.39,2.106S94.451,33.617,94.451,34.57z M92.508,34.57c0-0.701-0.113-1.357-0.338-1.971
		c-0.225-0.611-0.545-1.144-0.958-1.593c-0.415-0.45-0.914-0.807-1.499-1.067c-0.584-0.26-1.246-0.392-1.984-0.392
		c-0.737,0-1.398,0.132-1.983,0.392c-0.585,0.262-1.08,0.617-1.483,1.067c-0.406,0.449-0.722,0.979-0.945,1.593
		c-0.227,0.612-0.338,1.27-0.338,1.971c0,0.703,0.111,1.359,0.338,1.972c0.225,0.612,0.539,1.144,0.945,1.593
		c0.403,0.451,0.898,0.807,1.483,1.066c0.585,0.262,1.246,0.393,1.983,0.393c0.738,0,1.4-0.131,1.984-0.393
		c0.585-0.26,1.084-0.615,1.499-1.066c0.413-0.449,0.733-0.98,0.958-1.593C92.395,35.932,92.508,35.273,92.508,34.57z"/>
	<circle fill="#1D2088" cx="50.529" cy="23.413" r="1.595"/>
</g>
</svg>
